<svg version="1.0" xmlns="http://www.w3.org/2000/svg" viewBox="0 0 700 700"><path d="m198.5 87.5-151 87.3v350.4l151.3 87.3 151.3 87.4 151.2-87.3 151.2-87.3V174.7L501.2 87.4C418 39.3 349.8 0 349.7.1c-.1 0-68.1 39.4-151.2 87.4zm158 92.6c32.9 2.2 54.2 7.1 73 16.8 12.9 6.6 24.6 18.3 30.4 30.4 7.6 15.7 10.1 37.1 6.6 57.2-4.8 27.2-22.7 48.4-45.2 53.7-2.9.7-5.3 1.8-5.3 2.5s1.9 1.7 4.3 2.3c30.1 7.6 47.6 25.4 54.4 55.4 2.6 11.2 2.3 36.6-.5 47.9-10.4 42-46.9 68.3-102.1 73.7-5.8.6-40.4 1-79.7 1H223V350.7c0-93.7.3-170.7.7-171 1-1.1 116.3-.8 132.8.4z"/><path d="M296 276.6v37.6l32.3-.5c25.6-.3 33.3-.7 37.6-2 19.5-5.8 27.3-16 27.4-35.8.1-9-.2-10.2-3.2-16.3-2.4-4.9-4.5-7.6-7.9-10.1-11.5-8.3-23.9-10.5-59.9-10.5H296v37.6zM296 416.6v44.6l32.3-.4c29-.4 33-.7 40-2.6 22.5-6.2 32.7-19.5 32.7-42.6 0-15.5-4.4-25.2-14.8-32.6-11.8-8.5-26.7-11-65.2-11h-25v44.6z"/></svg>